<svg width="140" height="63" viewBox="0 0 140 63" fill="none" xmlns="http://www.w3.org/2000/svg">
<path d="M105.558 1.6094L114.28 10.0894V27.3882H131.855L139.158 36.8565V62.1082H61.6378L53.1149 53.8541V36.1788H8.98649L0.671622 27.6988V1.6094H105.558ZM105.823 0.941162H0V27.9718L8.7027 36.8376H52.4432V54.1271L61.3635 62.7671H139.82V36.6212L132.177 26.72H114.942V9.80705L105.823 0.941162Z" fill="white"/>
<path d="M26.2216 1.88234V27.0306H0.945946V1.88234H26.2216ZM27.1676 0.941162H0V27.9717H27.1676V0.941162Z" fill="white"/>
<path d="M8.02161 7.30347H13.65C14.3689 7.30347 15.0311 7.38817 15.627 7.54817C16.223 7.71758 16.7338 7.95288 17.1594 8.28229C17.5851 8.60229 17.9162 9.007 18.1527 9.487C18.3892 9.967 18.5121 10.5317 18.5121 11.1717C18.5121 11.6329 18.4554 12.0188 18.3419 12.3388C18.2284 12.6588 18.1054 12.9317 17.973 13.1388C17.8121 13.3929 17.6324 13.6093 17.4338 13.7788C17.7459 13.9764 18.0392 14.2399 18.2946 14.5505C18.5121 14.8235 18.7108 15.1623 18.8905 15.5764C19.0703 15.9905 19.1649 16.4988 19.1649 17.1011C19.1649 17.7882 19.0419 18.4093 18.7959 18.9646C18.55 19.5199 18.2 19.9999 17.7459 20.3952C17.2919 20.7905 16.7432 21.0917 16.0811 21.2988C15.4284 21.5058 14.7 21.6093 13.8959 21.6093H8.03107V7.30347H8.02161ZM13.2811 19.8964C14.5486 19.8964 15.4851 19.6235 16.0811 19.0776C16.6865 18.5317 16.9892 17.8164 16.9892 16.9129C16.9892 16.3293 16.8662 15.8588 16.6108 15.5105C16.3554 15.1623 16.0905 14.8893 15.8067 14.6823C15.4473 14.4564 15.05 14.2964 14.6243 14.2117C14.9648 14.1082 15.277 13.9576 15.5513 13.7411C15.7973 13.5529 16.0148 13.2988 16.2135 12.9788C16.4121 12.6588 16.5067 12.2446 16.5067 11.7458C16.5067 10.8423 16.223 10.1646 15.6459 9.70347C15.0689 9.24229 14.2838 9.01641 13.3 9.01641H10.1973V19.8964H13.3H13.2811ZM10.7365 13.9576V9.53405H13.2811C14.2176 9.53405 14.8892 9.74111 15.2959 10.1458C15.7027 10.5505 15.9108 11.087 15.9108 11.7458C15.9108 12.4046 15.7027 12.9411 15.2959 13.3458C14.8892 13.7505 14.2176 13.9576 13.2811 13.9576H10.7365ZM10.7365 19.3788V14.4658H13.2621C13.7067 14.4658 14.123 14.5129 14.5013 14.607C14.8797 14.7011 15.2203 14.8423 15.504 15.0399C15.7878 15.2376 16.0149 15.4917 16.1851 15.8023C16.3459 16.1129 16.4311 16.4893 16.4311 16.9223C16.4311 17.7976 16.1378 18.4282 15.5608 18.8141C14.9743 19.1999 14.2176 19.3976 13.2621 19.3976H10.7365V19.3788ZM14.0567 11.6611C14.0567 11.0023 13.6973 10.6729 12.9784 10.6729H12.4581V12.6493H12.9784C13.6973 12.6493 14.0567 12.3199 14.0567 11.6611ZM12.9784 18.2493C14.0662 18.2493 14.6148 17.8352 14.6148 17.007C14.6148 16.1788 14.0662 15.7646 12.9784 15.7646H12.4581V18.2493H12.9784Z" fill="white"/>
<path d="M52.4432 1.88234V27.0306H27.1675V1.88234H52.4432ZM53.3891 0.941162H26.2216V27.9717H53.3891V0.941162Z" fill="white"/>
<path d="M104.877 1.88234V27.0306H79.6109V1.88234H104.877ZM105.823 0.941162H78.6555V27.9717H105.832V0.941162H105.823Z" fill="white"/>
<path d="M78.6554 1.88234V27.0306H53.3797V1.88234H78.6554ZM79.6013 0.941162H52.4338V27.9717H79.6013V0.941162Z" fill="white"/>
<path d="M32.2567 14.4564C32.2567 13.4305 32.4554 12.4517 32.8527 11.5387C33.25 10.6258 33.7891 9.8258 34.4702 9.14815C35.1513 8.47051 35.9554 7.93404 36.8729 7.53874C37.7905 7.14345 38.7743 6.9458 39.8054 6.9458C40.8364 6.9458 41.8202 7.14345 42.7378 7.53874C43.6554 7.93404 44.4594 8.47051 45.1405 9.14815C45.8216 9.8258 46.3608 10.6258 46.7581 11.5387C47.1554 12.4517 47.354 13.4305 47.354 14.4564C47.354 15.4823 47.1554 16.4611 46.7581 17.374C46.3608 18.287 45.8216 19.087 45.1405 19.7646C44.4594 20.4423 43.6554 20.9787 42.7378 21.374C41.8202 21.7693 40.8364 21.967 39.8054 21.967C38.7743 21.967 37.7905 21.7693 36.8729 21.374C35.9554 20.9787 35.1513 20.4423 34.4702 19.7646C33.7891 19.087 33.25 18.287 32.8527 17.374C32.4554 16.4611 32.2567 15.4823 32.2567 14.4564ZM34.281 14.4564C34.281 15.2187 34.4229 15.9246 34.7162 16.5929C35 17.2611 35.3973 17.8446 35.8986 18.3434C36.4 18.8423 36.9864 19.2376 37.6581 19.5199C38.3297 19.8023 39.0392 19.9529 39.8054 19.9529C40.5716 19.9529 41.281 19.8117 41.9527 19.5199C42.6243 19.2376 43.2108 18.8423 43.7121 18.3434C44.2135 17.8446 44.6108 17.2611 44.8946 16.5929C45.1783 15.9246 45.3297 15.2187 45.3297 14.4564C45.3297 13.694 45.1878 12.9882 44.8946 12.3199C44.6108 11.6517 44.2135 11.0682 43.7121 10.5693C43.2108 10.0705 42.6243 9.67521 41.9527 9.39286C41.281 9.11051 40.5716 8.95992 39.8054 8.95992C39.0392 8.95992 38.3297 9.10109 37.6581 9.39286C36.9864 9.67521 36.4 10.0705 35.8986 10.5693C35.3973 11.0682 35 11.6517 34.7162 12.3199C34.4324 12.9882 34.281 13.694 34.281 14.4564ZM39.8054 19.3976C39.1148 19.3976 38.4716 19.2658 37.8756 19.0117C37.2797 18.7576 36.75 18.3999 36.3054 17.9482C35.8513 17.4964 35.5013 16.9787 35.2364 16.3858C34.981 15.7929 34.8486 15.1529 34.8486 14.4658C34.8486 13.7787 34.981 13.1387 35.2364 12.5458C35.4919 11.9529 35.8513 11.4258 36.3054 10.9834C36.7594 10.5317 37.2797 10.1834 37.8756 9.91992C38.4716 9.6658 39.1148 9.53404 39.8054 9.53404C40.4959 9.53404 41.1391 9.6658 41.7351 9.91992C42.331 10.174 42.8608 10.5317 43.3054 10.9834C43.7594 11.4352 44.1094 11.9529 44.3743 12.5458C44.6297 13.1387 44.7621 13.7787 44.7621 14.4658C44.7621 15.1529 44.6297 15.7929 44.3743 16.3858C44.1189 16.9787 43.7594 17.5058 43.3054 17.9482C42.8513 18.3999 42.331 18.7482 41.7351 19.0117C41.1391 19.2658 40.4959 19.3976 39.8054 19.3976ZM36.7878 14.4564C36.7878 14.8705 36.8635 15.2564 37.0243 15.6234C37.1851 15.9905 37.4027 16.3105 37.6675 16.574C37.9419 16.847 38.2635 17.0634 38.6229 17.214C38.9919 17.374 39.3797 17.4493 39.7959 17.4493C40.2121 17.4493 40.6 17.374 40.9689 17.214C41.3378 17.054 41.6594 16.8376 41.9243 16.574C42.1986 16.3011 42.4162 15.9811 42.5675 15.6234C42.7283 15.2564 42.804 14.8705 42.804 14.4564C42.804 14.0423 42.7283 13.6564 42.5675 13.2893C42.4067 12.9223 42.1891 12.6023 41.9243 12.3387C41.65 12.0658 41.3283 11.8493 40.9689 11.6987C40.6 11.5387 40.2121 11.4634 39.7959 11.4634C39.3797 11.4634 38.9919 11.5387 38.6229 11.6987C38.254 11.8587 37.9324 12.0752 37.6675 12.3387C37.3932 12.6117 37.1756 12.9317 37.0243 13.2893C36.8635 13.6564 36.7878 14.0423 36.7878 14.4564Z" fill="white"/>
<path d="M59.7649 21.6188V7.30347H63.7568C65.1095 7.30347 66.3108 7.45405 67.3703 7.75523C68.4298 8.05641 69.319 8.50817 70.0473 9.11053C70.7757 9.71288 71.3244 10.4564 71.7122 11.3505C72.0906 12.2446 72.2798 13.2799 72.2798 14.447C72.2798 15.6141 72.0906 16.6493 71.7122 17.5435C71.3338 18.4376 70.7757 19.1811 70.0473 19.7835C69.319 20.3858 68.4298 20.8376 67.3703 21.1482C66.3108 21.4588 65.1095 21.6093 63.7568 21.6093H59.7649V21.6188ZM61.9216 19.8964H63.7568C65.8568 19.8964 67.4365 19.4164 68.5149 18.4658C69.5838 17.5152 70.123 16.1693 70.123 14.447C70.123 12.7246 69.5838 11.3788 68.5149 10.4376C67.446 9.49641 65.8568 9.02582 63.7568 9.02582H61.9216V19.9058V19.8964ZM62.4892 19.3788V9.53405H63.7568C65.5825 9.53405 67.0014 9.94817 68.0135 10.767C69.0257 11.5858 69.5365 12.8188 69.5365 14.447C69.5365 16.0752 69.0257 17.3082 68.0135 18.1364C67.0014 18.9646 65.5825 19.3788 63.7568 19.3788H62.4892ZM64.3622 17.5341C65.4406 17.5341 66.273 17.2799 66.8595 16.7717C67.446 16.2635 67.7392 15.4917 67.7392 14.447C67.7392 13.4023 67.446 12.6305 66.8595 12.1317C66.273 11.6329 65.4406 11.3788 64.3622 11.3788V17.5341Z" fill="white"/>
<path d="M90.5176 7.30347H93.9703L99.4284 21.6188H85.0689L90.527 7.30347H90.5176ZM88.2567 19.9152L92.2392 9.53405L96.1932 19.9152H88.2662H88.2567ZM96.4392 20.6023L96.8081 21.6188H97.4135L96.3824 18.7858L92.6459 9.02582H91.823L88.077 18.8235L86.9892 21.6282H87.5946L87.9919 20.6117L88.0676 20.4141H96.3635L96.4297 20.6117L96.4392 20.6023ZM93.7338 18.5317L92.2392 14.6635L90.8297 18.5317H93.7338Z" fill="white"/>
<path d="M104.877 27.9812V53.1294H79.6014V27.9812H104.877ZM105.823 27.04H78.6555V54.0706H105.823V27.04Z" fill="white"/>
<path d="M131.108 27.9812V53.1294H105.832V27.9812H131.108ZM132.054 27.04H104.886V54.0706H132.054V27.04Z" fill="white"/>
<path d="M78.6649 27.9812V53.1294H53.3892V27.9812H78.6649ZM79.6108 27.04H52.4432V54.0706H79.6108V27.04Z" fill="white"/>
<path d="M95.4176 44.3481H89.4581L87.9067 47.7081H85.6459L92.5324 32.9976L99.173 47.7081H96.8743L95.4176 44.3481ZM94.5662 42.3811L92.504 37.6752L90.3378 42.3811H94.5662Z" fill="white"/>
<path d="M114.251 47.2848V33.4495H116.342C117.269 33.4495 118.016 33.5248 118.565 33.6659C119.123 33.8071 119.596 34.0518 119.984 34.3906C120.372 34.7389 120.684 35.1812 120.911 35.7083C121.147 36.2448 121.261 36.7812 121.261 37.3177C121.261 38.3059 120.882 39.153 120.116 39.8401C120.854 40.0942 121.441 40.5271 121.866 41.1577C122.301 41.7789 122.519 42.5036 122.519 43.3224C122.519 44.4048 122.131 45.3177 121.365 46.0612C120.901 46.5224 120.381 46.8424 119.804 47.0212C119.17 47.1906 118.385 47.2848 117.439 47.2848H114.261H114.251ZM116.351 39.3883H117.014C117.799 39.3883 118.366 39.2189 118.726 38.8706C119.085 38.5224 119.274 38.0236 119.274 37.3553C119.274 36.6871 119.085 36.2071 118.716 35.8683C118.347 35.5295 117.799 35.36 117.099 35.36H116.361V39.3883H116.351ZM116.351 45.3177H117.647C118.593 45.3177 119.293 45.1295 119.738 44.7624C120.211 44.3577 120.438 43.8589 120.438 43.2377C120.438 42.6165 120.211 42.1365 119.766 41.7318C119.331 41.3271 118.546 41.1295 117.411 41.1295H116.351V45.3177Z" fill="white"/>
<path d="M65.1946 33.4307V45.3083H69.2811V47.2754H63.0946V33.4401H65.1946V33.4307Z" fill="white"/>
</svg>
