<svg width="1920" height="1000" viewBox="0 0 1920 1000" fill="none" xmlns="http://www.w3.org/2000/svg">
<g clip-path="url(#clip0_74_1697)">
<rect width="1920" height="1000" fill="#0D0D0D"/>
<path d="M1233 313.5L1304.8 507M1491.5 1028L1304.8 507M1088.5 365L1341.5 1071M1304.8 507L991.5 620" stroke="#171717" stroke-width="10" stroke-linecap="round"/>
<path opacity="0.1" d="M1177.5 1028C1177.5 1028 873.848 499.919 832.728 21.3784L831.368 14H763.5C763.5 14 792.5 519 1104 1028" fill="url(#paint0_linear_74_1697)"/>
<path d="M717 1024.5L1396 776C1441.83 763.333 1547.3 718.4 1602.5 640C1609 625.667 1626.1 583.9 1642.5 531.5C1663.5 450.5 1729 271.3 1823 202.5L2037 15" stroke="#697215" stroke-linecap="round"/>
<path d="M1279.5 -4C1280 61.1667 1288 209.5 1316 281.5L1585 1036.5" stroke="#263C96" stroke-linecap="round"/>
<circle cx="1449.5" cy="657" r="10.5" fill="white" stroke="#263C96" stroke-width="3"/>
<path d="M1450.38 653.336V662H1448.98V654.908L1447.72 655.532L1447.14 654.284L1448.98 653.336H1450.38Z" fill="#263C96"/>
<circle cx="1451.5" cy="754" r="10.5" fill="white" stroke="#697215" stroke-width="3"/>
<path opacity="0.7" d="M1454.5 750.468V751.86L1450.32 759.048L1449.06 758.4L1452.8 751.872H1448.5V750.468H1454.5Z" fill="#697215"/>
<g clip-path="url(#clip1_74_1697)">
<path d="M1093.5 560.05C1099.3 560.05 1104 557.699 1104 554.8C1104 551.9 1099.3 549.55 1093.5 549.55C1087.7 549.55 1083 551.9 1083 554.8C1083 557.699 1087.7 560.05 1093.5 560.05Z" fill="url(#paint1_radial_74_1697)"/>
<path d="M1107 533.5C1107 539.07 1100.25 547 1094.75 554.5C1094.02 555.5 1092.98 555.5 1092.25 554.5C1086.75 547 1080 539.22 1080 533.5C1080 526.04 1086.04 520 1093.5 520C1100.96 520 1107 526.04 1107 533.5Z" fill="#00F0FF"/>
<path opacity="0.25" d="M1093.5 520C1086.04 520 1080 526.04 1080 533.5C1080 539.22 1086.75 547 1092.25 554.5C1093 555.52 1094.02 555.5 1094.75 554.5C1100.25 547 1107 539.07 1107 533.5C1107 526.04 1100.96 520 1093.5 520ZM1093.5 521C1100.42 521 1106 526.58 1106 533.5C1106 535.9 1104.5 539.18 1102.22 542.74C1099.95 546.3 1096.71 550.14 1093.94 553.91C1093.74 554.18 1093.61 554.32 1093.5 554.44C1093.39 554.32 1093.26 554.18 1093.06 553.91C1090.28 550.13 1087.41 546.31 1085.02 542.77C1082.62 539.23 1081 535.95 1081 533.5C1081 526.58 1086.58 521 1093.5 521Z" fill="black"/>
<path d="M1093.5 539C1096.54 539 1099 536.538 1099 533.5C1099 530.462 1096.54 528 1093.5 528C1090.46 528 1088 530.462 1088 533.5C1088 536.538 1090.46 539 1093.5 539Z" fill="#2D2D2C"/>
</g>
<path d="M1397.64 641.452C1397.69 641.752 1397.63 642.328 1397.63 642.328C1397.4 644.572 1395.56 646.048 1393.5 646.096C1391.13 646.096 1389.24 644.14 1389.24 641.668C1389.24 639.208 1391.13 637.252 1393.5 637.252C1395.95 637.252 1397.12 639.34 1397.12 639.34L1396.35 639.736C1396.35 639.736 1395.4 638.128 1393.5 638.128C1391.6 638.128 1390.11 639.688 1390.11 641.668C1390.11 643.66 1391.6 645.22 1393.5 645.22C1395.16 645.148 1396.59 644.02 1396.77 642.28H1393.72V641.452H1397.64ZM1401.73 645.22C1402.81 645.22 1403.76 644.272 1403.77 643C1403.76 641.728 1402.81 640.78 1401.73 640.78C1400.64 640.78 1399.69 641.74 1399.69 643C1399.69 644.26 1400.64 645.22 1401.73 645.22ZM1398.81 643C1398.81 641.332 1400.1 639.928 1401.72 639.928C1402.42 639.928 1403.22 640.3 1403.77 641.188V639.892H1404.63V646H1403.77V644.8C1403.19 645.736 1402.44 646.084 1401.72 646.084C1400.1 646.084 1398.81 644.656 1398.81 643ZM1409.86 641.452C1409.75 641.296 1409.62 641.128 1409.39 640.972C1408.96 640.696 1408.48 640.66 1408.08 640.672C1407.76 640.708 1407.39 640.804 1407.19 641.14C1407.04 641.464 1407.11 641.656 1407.28 641.836C1407.34 641.908 1407.43 642.004 1407.61 642.1C1407.78 642.232 1408.02 642.34 1408.15 642.376L1408.57 642.496C1409.65 642.784 1410.09 643.072 1410.31 643.336C1410.57 643.612 1410.89 644.236 1410.53 644.968C1410.33 645.352 1409.99 645.58 1409.67 645.736C1409.4 645.856 1409.04 645.964 1408.77 645.976C1408.11 646.036 1407.54 645.904 1406.93 645.532C1406.32 645.136 1406.07 644.572 1405.99 644.428L1406.79 644.044C1406.86 644.188 1407.01 644.536 1407.39 644.788C1407.87 645.076 1408.2 645.148 1408.71 645.112C1408.87 645.1 1409.09 645.04 1409.28 644.944C1409.53 644.824 1409.65 644.74 1409.74 644.56C1409.89 644.26 1409.8 644.08 1409.67 643.912C1409.52 643.756 1409.27 643.588 1408.33 643.336L1407.91 643.216C1407.73 643.156 1407.37 643.012 1407.13 642.844C1406.85 642.676 1406.68 642.484 1406.64 642.436C1406.34 642.112 1406.05 641.476 1406.4 640.732C1406.8 640.024 1407.6 639.844 1408.01 639.808C1408.49 639.772 1409.23 639.82 1409.87 640.252C1410.22 640.48 1410.46 640.768 1410.6 640.996L1409.86 641.452ZM1414.72 645.22C1415.8 645.22 1416.75 644.272 1416.76 643C1416.75 641.728 1415.8 640.78 1414.72 640.78C1413.63 640.78 1412.68 641.74 1412.68 643C1412.68 644.26 1413.63 645.22 1414.72 645.22ZM1411.81 643C1411.81 641.332 1413.09 639.928 1414.71 639.928C1415.42 639.928 1416.21 640.3 1416.76 641.188V639.892H1417.63V646H1416.76V644.8C1416.19 645.736 1415.43 646.084 1414.71 646.084C1413.09 646.084 1411.81 644.656 1411.81 643ZM1423.62 642.4C1423.62 641.56 1423.06 640.816 1422.05 640.816C1421 640.816 1420.25 641.584 1420.25 642.4V646H1419.37V639.892H1420.25V640.936C1420.66 640.216 1421.24 639.892 1422.08 639.892C1423.51 639.892 1424.5 640.972 1424.5 642.316V646H1423.62V642.4ZM1342.95 660.124C1344.85 660.124 1346.4 658.576 1346.4 656.668C1346.4 654.76 1344.85 653.212 1342.95 653.212H1341.45V660.124H1342.95ZM1340.58 661V652.336H1342.95C1345.33 652.336 1347.27 654.28 1347.27 656.668C1347.27 659.056 1345.33 661 1342.95 661H1340.58ZM1348.65 652.18H1349.63V653.164H1348.65V652.18ZM1348.72 661V654.892H1349.58V661H1348.72ZM1353.95 660.244C1355.05 660.244 1355.99 659.284 1355.99 658C1355.99 656.752 1355.05 655.792 1353.95 655.792C1352.86 655.792 1351.91 656.752 1351.91 658C1351.91 659.284 1352.86 660.244 1353.95 660.244ZM1351.03 658C1351.03 656.344 1352.32 654.94 1353.94 654.94C1354.63 654.94 1355.55 655.24 1355.99 656.2V654.904H1356.85V660.7C1356.83 662.572 1355.55 664 1353.76 664C1352.69 664 1351.87 663.412 1351.31 662.56L1352.05 662.08C1352.45 662.704 1352.99 663.124 1353.76 663.124C1355.01 663.124 1355.98 662.176 1355.99 660.688V659.776C1355.52 660.628 1354.62 661.084 1353.94 661.084C1352.32 661.084 1351.03 659.68 1351.03 658ZM1358.46 652.18H1359.44V653.164H1358.46V652.18ZM1358.53 661V654.892H1359.39V661H1358.53ZM1364.41 660.556C1364.13 660.808 1363.75 660.976 1363.32 660.976C1362.4 660.976 1361.67 660.244 1361.67 659.344V655.672H1360.68V654.844H1361.67V652.96H1362.55V654.844H1363.96V655.672H1362.55V659.344C1362.55 659.824 1362.82 660.1 1363.32 660.1C1363.53 660.1 1363.66 660.052 1363.81 659.908L1364.41 660.556ZM1367.94 660.22C1369.02 660.22 1369.97 659.272 1369.98 658C1369.97 656.728 1369.02 655.78 1367.94 655.78C1366.85 655.78 1365.9 656.74 1365.9 658C1365.9 659.26 1366.85 660.22 1367.94 660.22ZM1365.03 658C1365.03 656.332 1366.31 654.928 1367.93 654.928C1368.64 654.928 1369.43 655.3 1369.98 656.188V654.892H1370.85V661H1369.98V659.8C1369.41 660.736 1368.65 661.084 1367.93 661.084C1366.31 661.084 1365.03 659.656 1365.03 658ZM1372.38 652.096H1373.24V661H1372.38V652.096ZM1381.94 661.096C1379.56 661.096 1377.67 659.092 1377.67 656.668C1377.67 654.244 1379.56 652.24 1381.94 652.24C1383.13 652.24 1384.19 652.744 1384.96 653.536L1384.33 654.136C1383.71 653.5 1382.87 653.128 1381.94 653.128C1380.08 653.128 1378.55 654.7 1378.55 656.668C1378.55 658.648 1380.08 660.22 1381.94 660.22C1382.87 660.22 1383.71 659.836 1384.33 659.2L1384.96 659.8C1384.19 660.592 1383.13 661.096 1381.94 661.096ZM1388.93 660.196C1390.03 660.196 1390.98 659.224 1390.98 657.952C1390.98 656.68 1390.03 655.72 1388.93 655.72C1387.81 655.72 1386.87 656.68 1386.87 657.952C1386.87 659.224 1387.81 660.196 1388.93 660.196ZM1386.03 657.952C1386.03 656.284 1387.3 654.856 1388.93 654.856C1390.57 654.856 1391.85 656.284 1391.85 657.952C1391.85 659.62 1390.57 661.048 1388.93 661.048C1387.3 661.048 1386.03 659.62 1386.03 657.952ZM1401.18 657.256C1401.18 656.488 1400.49 655.804 1399.74 655.804C1398.94 655.804 1398.11 656.38 1398.11 657.256V661H1397.25V657.256C1397.25 656.488 1396.76 655.816 1395.82 655.816C1394.85 655.816 1394.19 656.488 1394.19 657.232V661H1393.31V654.892H1394.19V655.828C1394.57 655.168 1395.12 654.892 1395.86 654.892C1396.74 654.892 1397.33 655.276 1397.76 656.116C1398.21 655.492 1398.94 654.892 1399.78 654.892C1400.94 654.892 1402.06 655.9 1402.06 657.16V661H1401.18V657.256ZM1406.76 660.244C1407.84 660.244 1408.8 659.272 1408.8 657.988C1408.8 656.728 1407.84 655.756 1406.76 655.756C1405.66 655.756 1404.71 656.728 1404.71 657.988C1404.71 659.272 1405.66 660.244 1406.76 660.244ZM1403.83 664.12V654.904H1404.71V656.188C1405.11 655.324 1406.03 654.904 1406.77 654.904C1408.41 654.904 1409.69 656.332 1409.69 657.988C1409.69 659.668 1408.41 661.096 1406.77 661.096C1406.01 661.096 1405.11 660.58 1404.71 659.8V664.12H1403.83ZM1410.86 652.096H1411.73V661H1410.86V652.096ZM1417.65 657.424C1417.43 656.452 1416.71 655.708 1415.78 655.708C1414.82 655.708 1413.99 656.44 1413.79 657.424H1417.65ZM1412.9 657.952C1412.9 656.272 1414.15 654.868 1415.78 654.868C1417.49 654.868 1418.24 656.464 1418.26 656.524C1418.67 657.34 1418.49 658.252 1418.49 658.252H1413.75C1413.88 659.38 1414.76 660.196 1415.79 660.196C1416.95 660.196 1417.49 659.296 1417.49 659.296L1418.23 659.668C1418.23 659.668 1417.47 661.036 1415.78 661.036C1414.15 661.036 1412.9 659.62 1412.9 657.952ZM1424.72 654.892L1422.4 657.952L1424.71 661H1423.6L1421.96 658.732L1420.32 661H1419.2L1421.5 657.952L1419.2 654.892H1420.3L1421.96 657.184L1423.6 654.892H1424.72ZM1394.29 669.412C1394.13 669.136 1393.94 668.884 1393.59 668.632C1392.98 668.188 1392.32 668.116 1391.77 668.152C1391.28 668.2 1390.71 668.344 1390.39 668.92C1390.14 669.52 1390.29 669.94 1390.52 670.24C1390.62 670.348 1390.77 670.504 1391.03 670.696C1391.28 670.864 1391.52 671.008 1391.83 671.116L1392.39 671.308C1393.82 671.752 1394.37 672.148 1394.67 672.496C1394.99 672.892 1395.38 673.744 1394.93 674.704C1394.65 675.208 1394.24 675.532 1393.81 675.748C1393.49 675.904 1393.01 676.084 1392.63 676.096C1391.78 676.168 1391 675.964 1390.22 675.412C1389.44 674.86 1389.09 674.068 1389.01 673.792L1389.87 673.528C1389.93 673.744 1390.17 674.284 1390.75 674.692C1391.37 675.136 1391.89 675.268 1392.59 675.208C1392.81 675.196 1393.14 675.088 1393.4 674.956C1393.73 674.788 1393.95 674.62 1394.13 674.296C1394.39 673.744 1394.19 673.336 1393.98 673.072C1393.79 672.832 1393.39 672.556 1392.11 672.148L1391.54 671.956C1391.13 671.824 1390.8 671.608 1390.52 671.416C1390.17 671.176 1389.95 670.924 1389.85 670.816C1389.49 670.372 1389.14 669.52 1389.6 668.536C1390.1 667.552 1391.12 667.312 1391.7 667.264C1392.35 667.228 1393.29 667.312 1394.12 667.912C1394.58 668.248 1394.88 668.644 1395.06 668.98L1394.29 669.412ZM1399.97 675.556C1399.7 675.808 1399.31 675.976 1398.88 675.976C1397.97 675.976 1397.24 675.244 1397.24 674.344V670.672H1396.24V669.844H1397.24V667.96H1398.11V669.844H1399.53V670.672H1398.11V674.344C1398.11 674.824 1398.39 675.1 1398.88 675.1C1399.1 675.1 1399.23 675.052 1399.37 674.908L1399.97 675.556ZM1403.51 675.22C1404.59 675.22 1405.54 674.272 1405.55 673C1405.54 671.728 1404.59 670.78 1403.51 670.78C1402.42 670.78 1401.47 671.74 1401.47 673C1401.47 674.26 1402.42 675.22 1403.51 675.22ZM1400.59 673C1400.59 671.332 1401.88 669.928 1403.5 669.928C1404.21 669.928 1405 670.3 1405.55 671.188V669.892H1406.41V676H1405.55V674.8C1404.97 675.736 1404.22 676.084 1403.5 676.084C1401.88 676.084 1400.59 674.656 1400.59 673ZM1411.38 675.556C1411.1 675.808 1410.72 675.976 1410.28 675.976C1409.37 675.976 1408.64 675.244 1408.64 674.344V670.672H1407.64V669.844H1408.64V667.96H1409.52V669.844H1410.93V670.672H1409.52V674.344C1409.52 674.824 1409.79 675.1 1410.28 675.1C1410.5 675.1 1410.63 675.052 1410.78 674.908L1411.38 675.556ZM1412.55 667.18H1413.53V668.164H1412.55V667.18ZM1412.62 676V669.892H1413.49V676H1412.62ZM1417.84 675.196C1418.94 675.196 1419.89 674.224 1419.89 672.952C1419.89 671.68 1418.94 670.72 1417.84 670.72C1416.72 670.72 1415.78 671.68 1415.78 672.952C1415.78 674.224 1416.72 675.196 1417.84 675.196ZM1414.94 672.952C1414.94 671.284 1416.21 669.856 1417.84 669.856C1419.48 669.856 1420.76 671.284 1420.76 672.952C1420.76 674.62 1419.48 676.048 1417.84 676.048C1416.21 676.048 1414.94 674.62 1414.94 672.952ZM1426.39 672.4C1426.39 671.56 1425.82 670.816 1424.81 670.816C1423.77 670.816 1423.01 671.584 1423.01 672.4V676H1422.14V669.892H1423.01V670.936C1423.42 670.216 1424.01 669.892 1424.85 669.892C1426.28 669.892 1427.26 670.972 1427.26 672.316V676H1426.39V672.4Z" fill="#4C64C6"/>
<path d="M1060.53 568.794H1064.98C1066.55 568.794 1067.81 570.012 1067.81 571.594C1067.81 572.476 1067.37 573.19 1066.73 573.708C1067.51 574.198 1068.05 575.15 1068.05 576.228C1068.05 577.824 1066.77 579.098 1065.2 579.098H1060.53V568.794ZM1062 577.6H1065.06C1065.88 577.6 1066.53 576.956 1066.53 576.102C1066.53 575.206 1065.88 574.52 1065.06 574.52H1062V577.6ZM1062 573.078H1064.94C1065.74 573.05 1066.35 572.476 1066.35 571.678C1066.35 570.852 1065.68 570.236 1064.87 570.236H1062V573.078ZM1074.52 577.754C1076.51 577.754 1078.19 576.06 1078.19 573.946C1078.19 571.846 1076.51 570.152 1074.52 570.152C1072.51 570.152 1070.84 571.846 1070.84 573.946C1070.84 576.06 1072.51 577.754 1074.52 577.754ZM1069.39 573.946C1069.39 571.062 1071.7 568.682 1074.52 568.682C1077.35 568.682 1079.65 571.062 1079.65 573.946C1079.65 576.844 1077.35 579.21 1074.52 579.21C1071.7 579.21 1069.39 576.844 1069.39 573.946ZM1084.31 577.628C1086.32 577.628 1087.99 575.976 1087.99 573.946C1087.99 571.916 1086.32 570.264 1084.31 570.264H1082.7V577.628H1084.31ZM1081.23 579.098V568.794H1084.32C1087.15 568.794 1089.46 571.104 1089.46 573.946C1089.46 576.788 1087.15 579.098 1084.32 579.098H1081.23ZM1095.7 568.794L1100 579.098H1098.45L1097.3 576.312H1092.52L1091.38 579.098H1089.82L1094.12 568.794H1095.7ZM1093.17 574.772H1096.65L1094.92 570.586L1093.17 574.772ZM1106.53 568.794V577.67H1111.64V579.098H1105.07V568.794H1106.53ZM1115.82 577.796C1116.94 577.796 1117.91 576.816 1117.92 575.514C1117.91 574.212 1116.94 573.232 1115.82 573.232C1114.69 573.232 1113.72 574.212 1113.72 575.514C1113.72 576.816 1114.69 577.796 1115.82 577.796ZM1112.25 575.514C1112.25 573.526 1113.78 571.832 1115.73 571.832C1116.52 571.832 1117.39 572.238 1117.98 573.106V571.804H1119.44V579.084L1117.98 579.098V577.936C1117.36 578.832 1116.54 579.21 1115.73 579.21C1113.78 579.21 1112.25 577.502 1112.25 575.514ZM1124.79 577.726C1125.89 577.726 1126.83 576.76 1126.83 575.486C1126.83 574.226 1125.89 573.26 1124.79 573.26C1123.68 573.26 1122.74 574.226 1122.74 575.486C1122.74 576.76 1123.68 577.726 1124.79 577.726ZM1121.23 579V568.5H1122.67V573.12C1123.29 572.196 1124.2 571.874 1124.9 571.874C1126.82 571.874 1128.31 573.54 1128.31 575.486C1128.31 577.446 1126.8 579.112 1124.88 579.112C1124.2 579.112 1123.32 578.874 1122.67 577.852V579H1121.23Z" fill="white"/>
<path d="M1434.64 789.452C1434.69 789.752 1434.63 790.328 1434.63 790.328C1434.4 792.572 1432.56 794.048 1430.5 794.096C1428.13 794.096 1426.24 792.14 1426.24 789.668C1426.24 787.208 1428.13 785.252 1430.5 785.252C1432.95 785.252 1434.12 787.34 1434.12 787.34L1433.35 787.736C1433.35 787.736 1432.4 786.128 1430.5 786.128C1428.6 786.128 1427.11 787.688 1427.11 789.668C1427.11 791.66 1428.6 793.22 1430.5 793.22C1432.16 793.148 1433.59 792.02 1433.77 790.28H1430.72V789.452H1434.64ZM1438.73 793.22C1439.81 793.22 1440.76 792.272 1440.77 791C1440.76 789.728 1439.81 788.78 1438.73 788.78C1437.64 788.78 1436.69 789.74 1436.69 791C1436.69 792.26 1437.64 793.22 1438.73 793.22ZM1435.81 791C1435.81 789.332 1437.1 787.928 1438.72 787.928C1439.42 787.928 1440.22 788.3 1440.77 789.188V787.892H1441.63V794H1440.77V792.8C1440.19 793.736 1439.44 794.084 1438.72 794.084C1437.1 794.084 1435.81 792.656 1435.81 791ZM1446.86 789.452C1446.75 789.296 1446.62 789.128 1446.39 788.972C1445.96 788.696 1445.48 788.66 1445.08 788.672C1444.76 788.708 1444.39 788.804 1444.19 789.14C1444.04 789.464 1444.11 789.656 1444.28 789.836C1444.34 789.908 1444.43 790.004 1444.61 790.1C1444.78 790.232 1445.02 790.34 1445.15 790.376L1445.57 790.496C1446.65 790.784 1447.09 791.072 1447.31 791.336C1447.57 791.612 1447.89 792.236 1447.53 792.968C1447.33 793.352 1446.99 793.58 1446.67 793.736C1446.4 793.856 1446.04 793.964 1445.77 793.976C1445.11 794.036 1444.54 793.904 1443.93 793.532C1443.32 793.136 1443.07 792.572 1442.99 792.428L1443.79 792.044C1443.86 792.188 1444.01 792.536 1444.39 792.788C1444.87 793.076 1445.2 793.148 1445.71 793.112C1445.87 793.1 1446.09 793.04 1446.28 792.944C1446.53 792.824 1446.65 792.74 1446.74 792.56C1446.89 792.26 1446.8 792.08 1446.67 791.912C1446.52 791.756 1446.27 791.588 1445.33 791.336L1444.91 791.216C1444.73 791.156 1444.37 791.012 1444.13 790.844C1443.85 790.676 1443.68 790.484 1443.64 790.436C1443.34 790.112 1443.05 789.476 1443.4 788.732C1443.8 788.024 1444.6 787.844 1445.01 787.808C1445.49 787.772 1446.23 787.82 1446.87 788.252C1447.22 788.48 1447.46 788.768 1447.6 788.996L1446.86 789.452ZM1451.72 793.22C1452.8 793.22 1453.75 792.272 1453.76 791C1453.75 789.728 1452.8 788.78 1451.72 788.78C1450.63 788.78 1449.68 789.74 1449.68 791C1449.68 792.26 1450.63 793.22 1451.72 793.22ZM1448.81 791C1448.81 789.332 1450.09 787.928 1451.71 787.928C1452.42 787.928 1453.21 788.3 1453.76 789.188V787.892H1454.63V794H1453.76V792.8C1453.19 793.736 1452.43 794.084 1451.71 794.084C1450.09 794.084 1448.81 792.656 1448.81 791ZM1460.62 790.4C1460.62 789.56 1460.06 788.816 1459.05 788.816C1458 788.816 1457.25 789.584 1457.25 790.4V794H1456.37V787.892H1457.25V788.936C1457.66 788.216 1458.24 787.892 1459.08 787.892C1460.51 787.892 1461.5 788.972 1461.5 790.316V794H1460.62V790.4ZM1379.95 808.124C1381.85 808.124 1383.4 806.576 1383.4 804.668C1383.4 802.76 1381.85 801.212 1379.95 801.212H1378.45V808.124H1379.95ZM1377.58 809V800.336H1379.95C1382.33 800.336 1384.27 802.28 1384.27 804.668C1384.27 807.056 1382.33 809 1379.95 809H1377.58ZM1385.65 800.18H1386.63V801.164H1385.65V800.18ZM1385.72 809V802.892H1386.58V809H1385.72ZM1390.95 808.244C1392.05 808.244 1392.99 807.284 1392.99 806C1392.99 804.752 1392.05 803.792 1390.95 803.792C1389.86 803.792 1388.91 804.752 1388.91 806C1388.91 807.284 1389.86 808.244 1390.95 808.244ZM1388.03 806C1388.03 804.344 1389.32 802.94 1390.94 802.94C1391.63 802.94 1392.55 803.24 1392.99 804.2V802.904H1393.85V808.7C1393.83 810.572 1392.55 812 1390.76 812C1389.69 812 1388.87 811.412 1388.31 810.56L1389.05 810.08C1389.45 810.704 1389.99 811.124 1390.76 811.124C1392.01 811.124 1392.98 810.176 1392.99 808.688V807.776C1392.52 808.628 1391.62 809.084 1390.94 809.084C1389.32 809.084 1388.03 807.68 1388.03 806ZM1395.46 800.18H1396.44V801.164H1395.46V800.18ZM1395.53 809V802.892H1396.39V809H1395.53ZM1401.41 808.556C1401.13 808.808 1400.75 808.976 1400.32 808.976C1399.4 808.976 1398.67 808.244 1398.67 807.344V803.672H1397.68V802.844H1398.67V800.96H1399.55V802.844H1400.96V803.672H1399.55V807.344C1399.55 807.824 1399.82 808.1 1400.32 808.1C1400.53 808.1 1400.66 808.052 1400.81 807.908L1401.41 808.556ZM1404.94 808.22C1406.02 808.22 1406.97 807.272 1406.98 806C1406.97 804.728 1406.02 803.78 1404.94 803.78C1403.85 803.78 1402.9 804.74 1402.9 806C1402.9 807.26 1403.85 808.22 1404.94 808.22ZM1402.03 806C1402.03 804.332 1403.31 802.928 1404.93 802.928C1405.64 802.928 1406.43 803.3 1406.98 804.188V802.892H1407.85V809H1406.98V807.8C1406.41 808.736 1405.65 809.084 1404.93 809.084C1403.31 809.084 1402.03 807.656 1402.03 806ZM1409.38 800.096H1410.24V809H1409.38V800.096ZM1418.94 809.096C1416.56 809.096 1414.67 807.092 1414.67 804.668C1414.67 802.244 1416.56 800.24 1418.94 800.24C1420.13 800.24 1421.19 800.744 1421.96 801.536L1421.33 802.136C1420.71 801.5 1419.87 801.128 1418.94 801.128C1417.08 801.128 1415.55 802.7 1415.55 804.668C1415.55 806.648 1417.08 808.22 1418.94 808.22C1419.87 808.22 1420.71 807.836 1421.33 807.2L1421.96 807.8C1421.19 808.592 1420.13 809.096 1418.94 809.096ZM1425.93 808.196C1427.03 808.196 1427.98 807.224 1427.98 805.952C1427.98 804.68 1427.03 803.72 1425.93 803.72C1424.81 803.72 1423.87 804.68 1423.87 805.952C1423.87 807.224 1424.81 808.196 1425.93 808.196ZM1423.03 805.952C1423.03 804.284 1424.3 802.856 1425.93 802.856C1427.57 802.856 1428.85 804.284 1428.85 805.952C1428.85 807.62 1427.57 809.048 1425.93 809.048C1424.3 809.048 1423.03 807.62 1423.03 805.952ZM1438.18 805.256C1438.18 804.488 1437.49 803.804 1436.74 803.804C1435.94 803.804 1435.11 804.38 1435.11 805.256V809H1434.25V805.256C1434.25 804.488 1433.76 803.816 1432.82 803.816C1431.85 803.816 1431.19 804.488 1431.19 805.232V809H1430.31V802.892H1431.19V803.828C1431.57 803.168 1432.12 802.892 1432.86 802.892C1433.74 802.892 1434.33 803.276 1434.76 804.116C1435.21 803.492 1435.94 802.892 1436.78 802.892C1437.94 802.892 1439.06 803.9 1439.06 805.16V809H1438.18V805.256ZM1443.76 808.244C1444.84 808.244 1445.8 807.272 1445.8 805.988C1445.8 804.728 1444.84 803.756 1443.76 803.756C1442.66 803.756 1441.71 804.728 1441.71 805.988C1441.71 807.272 1442.66 808.244 1443.76 808.244ZM1440.83 812.12V802.904H1441.71V804.188C1442.11 803.324 1443.03 802.904 1443.77 802.904C1445.41 802.904 1446.69 804.332 1446.69 805.988C1446.69 807.668 1445.41 809.096 1443.77 809.096C1443.01 809.096 1442.11 808.58 1441.71 807.8V812.12H1440.83ZM1447.86 800.096H1448.73V809H1447.86V800.096ZM1454.65 805.424C1454.43 804.452 1453.71 803.708 1452.78 803.708C1451.82 803.708 1450.99 804.44 1450.79 805.424H1454.65ZM1449.9 805.952C1449.9 804.272 1451.15 802.868 1452.78 802.868C1454.49 802.868 1455.24 804.464 1455.26 804.524C1455.67 805.34 1455.49 806.252 1455.49 806.252H1450.75C1450.88 807.38 1451.76 808.196 1452.79 808.196C1453.95 808.196 1454.49 807.296 1454.49 807.296L1455.23 807.668C1455.23 807.668 1454.47 809.036 1452.78 809.036C1451.15 809.036 1449.9 807.62 1449.9 805.952ZM1461.72 802.892L1459.4 805.952L1461.71 809H1460.6L1458.96 806.732L1457.32 809H1456.2L1458.5 805.952L1456.2 802.892H1457.3L1458.96 805.184L1460.6 802.892H1461.72ZM1431.29 817.412C1431.13 817.136 1430.94 816.884 1430.59 816.632C1429.98 816.188 1429.32 816.116 1428.77 816.152C1428.28 816.2 1427.71 816.344 1427.39 816.92C1427.14 817.52 1427.29 817.94 1427.52 818.24C1427.62 818.348 1427.77 818.504 1428.03 818.696C1428.28 818.864 1428.52 819.008 1428.83 819.116L1429.39 819.308C1430.82 819.752 1431.37 820.148 1431.67 820.496C1431.99 820.892 1432.38 821.744 1431.93 822.704C1431.65 823.208 1431.24 823.532 1430.81 823.748C1430.49 823.904 1430.01 824.084 1429.63 824.096C1428.78 824.168 1428 823.964 1427.22 823.412C1426.44 822.86 1426.09 822.068 1426.01 821.792L1426.87 821.528C1426.93 821.744 1427.17 822.284 1427.75 822.692C1428.37 823.136 1428.89 823.268 1429.59 823.208C1429.81 823.196 1430.14 823.088 1430.4 822.956C1430.73 822.788 1430.95 822.62 1431.13 822.296C1431.39 821.744 1431.19 821.336 1430.98 821.072C1430.79 820.832 1430.39 820.556 1429.11 820.148L1428.54 819.956C1428.13 819.824 1427.8 819.608 1427.52 819.416C1427.17 819.176 1426.95 818.924 1426.85 818.816C1426.49 818.372 1426.14 817.52 1426.6 816.536C1427.1 815.552 1428.12 815.312 1428.7 815.264C1429.35 815.228 1430.29 815.312 1431.12 815.912C1431.58 816.248 1431.88 816.644 1432.06 816.98L1431.29 817.412ZM1436.97 823.556C1436.7 823.808 1436.31 823.976 1435.88 823.976C1434.97 823.976 1434.24 823.244 1434.24 822.344V818.672H1433.24V817.844H1434.24V815.96H1435.11V817.844H1436.53V818.672H1435.11V822.344C1435.11 822.824 1435.39 823.1 1435.88 823.1C1436.1 823.1 1436.23 823.052 1436.37 822.908L1436.97 823.556ZM1440.51 823.22C1441.59 823.22 1442.54 822.272 1442.55 821C1442.54 819.728 1441.59 818.78 1440.51 818.78C1439.42 818.78 1438.47 819.74 1438.47 821C1438.47 822.26 1439.42 823.22 1440.51 823.22ZM1437.59 821C1437.59 819.332 1438.88 817.928 1440.5 817.928C1441.21 817.928 1442 818.3 1442.55 819.188V817.892H1443.41V824H1442.55V822.8C1441.97 823.736 1441.22 824.084 1440.5 824.084C1438.88 824.084 1437.59 822.656 1437.59 821ZM1448.38 823.556C1448.1 823.808 1447.72 823.976 1447.28 823.976C1446.37 823.976 1445.64 823.244 1445.64 822.344V818.672H1444.64V817.844H1445.64V815.96H1446.52V817.844H1447.93V818.672H1446.52V822.344C1446.52 822.824 1446.79 823.1 1447.28 823.1C1447.5 823.1 1447.63 823.052 1447.78 822.908L1448.38 823.556ZM1449.55 815.18H1450.53V816.164H1449.55V815.18ZM1449.62 824V817.892H1450.49V824H1449.62ZM1454.84 823.196C1455.94 823.196 1456.89 822.224 1456.89 820.952C1456.89 819.68 1455.94 818.72 1454.84 818.72C1453.72 818.72 1452.78 819.68 1452.78 820.952C1452.78 822.224 1453.72 823.196 1454.84 823.196ZM1451.94 820.952C1451.94 819.284 1453.21 817.856 1454.84 817.856C1456.48 817.856 1457.76 819.284 1457.76 820.952C1457.76 822.62 1456.48 824.048 1454.84 824.048C1453.21 824.048 1451.94 822.62 1451.94 820.952ZM1463.39 820.4C1463.39 819.56 1462.82 818.816 1461.81 818.816C1460.77 818.816 1460.01 819.584 1460.01 820.4V824H1459.14V817.892H1460.01V818.936C1460.42 818.216 1461.01 817.892 1461.85 817.892C1463.28 817.892 1464.26 818.972 1464.26 820.316V824H1463.39V820.4Z" fill="#697215"/>
<rect width="1920" height="460" fill="url(#paint2_linear_74_1697)"/>
<rect x="1920" y="1000" width="1920" height="173" transform="rotate(180 1920 1000)" fill="url(#paint3_linear_74_1697)"/>
<rect x="1931" y="-7" width="1014" height="429" transform="rotate(90 1931 -7)" fill="url(#paint4_linear_74_1697)"/>
</g>
<defs>
<linearGradient id="paint0_linear_74_1697" x1="763.5" y1="14" x2="970.5" y2="1028" gradientUnits="userSpaceOnUse">
<stop stop-color="#303C4A"/>
<stop offset="1" stop-color="#245894"/>
</linearGradient>
<radialGradient id="paint1_radial_74_1697" cx="0" cy="0" r="1" gradientUnits="userSpaceOnUse" gradientTransform="translate(1093.5 554.8) scale(10.5 5.25)">
<stop offset="0.1" stop-opacity="0.4"/>
<stop offset="1" stop-opacity="0.05"/>
</radialGradient>
<linearGradient id="paint2_linear_74_1697" x1="1044.58" y1="460" x2="977.55" y2="9.98321" gradientUnits="userSpaceOnUse">
<stop stop-color="#0D0D0D" stop-opacity="0"/>
<stop offset="0.35" stop-color="#0D0D0D" stop-opacity="0.83"/>
<stop offset="1" stop-color="#0D0D0D"/>
</linearGradient>
<linearGradient id="paint3_linear_74_1697" x1="2964.58" y1="1173" x2="2955.17" y2="1005.04" gradientUnits="userSpaceOnUse">
<stop stop-color="#0D0D0D" stop-opacity="0"/>
<stop offset="1" stop-color="#0D0D0D"/>
</linearGradient>
<linearGradient id="paint4_linear_74_1697" x1="2482.67" y1="422" x2="2377.13" y2="20.7571" gradientUnits="userSpaceOnUse">
<stop stop-color="#0D0D0D" stop-opacity="0"/>
<stop offset="0.5" stop-color="#0D0D0D" stop-opacity="0.83"/>
<stop offset="1" stop-color="#0D0D0D"/>
</linearGradient>
<clipPath id="clip0_74_1697">
<rect width="1920" height="1000" fill="white"/>
</clipPath>
<clipPath id="clip1_74_1697">
<rect width="27" height="41" fill="white" transform="translate(1080 520)"/>
</clipPath>
</defs>
</svg>
